<?xml version="1.0" encoding="utf-8"?>
<!-- Generator: Adobe Illustrator 28.4.1, SVG Export Plug-In . SVG Version: 6.00 Build 0)  -->
<svg version="1.1" id="Layer_1" xmlns="http://www.w3.org/2000/svg" xmlns:xlink="http://www.w3.org/1999/xlink" x="0px" y="0px"
	 viewBox="0 0 268.34 136.3" style="enable-background:new 0 0 268.34 136.3;" xml:space="preserve">
<style type="text/css">
	.st0{fill:#877563;}
	.st1{fill:#DCDBDB;}
	.st2{fill:#725337;}
	.st3{fill:#B5B5B5;}
	.st4{fill:#A17F5F;}
	.st5{fill:#27AAE1;}
	.st6{fill:#FFFFFF;}
	.st7{opacity:0.39;fill:#FFFFFF;}
	.st8{fill:none;stroke:#000000;stroke-width:3;stroke-miterlimit:10;}
	.st9{fill:#1C75BC;}
	.st10{fill:#2E3192;}
</style>
<g>
	<g>
		<path class="st0" d="M256.54,21.79c-0.02-0.78-0.1-1.55-0.21-2.3l-4.01-0.66l-1.36-3.8l2.67-3.06c-0.81-1.35-1.78-2.59-2.87-3.71
			l-3.64,1.83l-3.33-2.27l0.36-4.06c-1.38-0.58-2.85-1.02-4.36-1.29l-1.89,3.61l-4.03,0.09l-2.07-3.51
			c-1.55,0.35-3.03,0.88-4.42,1.56l0.59,4.03l-3.21,2.45l-3.74-1.61c-1.03,1.17-1.92,2.47-2.65,3.86l2.84,2.91l-1.15,3.87
			l-3.97,0.89c-0.07,0.8-0.1,1.62-0.08,2.45c0.03,0.76,0.1,1.5,0.2,2.23l4.01,0.68l1.35,3.8l-2.69,3.06
			c0.81,1.35,1.77,2.61,2.86,3.73l3.64-1.81l3.33,2.28l-0.38,4.06c1.43,0.6,2.93,1.06,4.5,1.33l1.88-3.62l4.03-0.11l2.08,3.51
			c1.55-0.36,3.03-0.89,4.42-1.58l-0.61-4.03l3.19-2.47l3.74,1.6c1.03-1.18,1.92-2.48,2.65-3.87l-2.86-2.89l1.13-3.88l3.97-0.9
			C256.54,23.39,256.57,22.59,256.54,21.79z M242.27,29.26c-3.76,3.31-9.5,2.95-12.82-0.83c-3.3-3.78-2.94-9.51,0.84-12.81
			c3.76-3.32,9.5-2.95,12.81,0.82C246.43,20.2,246.04,25.95,242.27,29.26z"/>
		<path class="st1" d="M246.27,13.66c-4.84-5.52-13.26-6.07-18.77-1.22c-5.51,4.85-6.06,13.25-1.2,18.77
			c4.84,5.51,13.25,6.06,18.76,1.21C250.57,27.58,251.11,19.17,246.27,13.66z M244.19,31.44c-4.97,4.37-12.55,3.88-16.92-1.09
			c-4.38-4.98-3.89-12.56,1.08-16.93c4.98-4.37,12.56-3.87,16.93,1.1C249.66,19.49,249.17,27.07,244.19,31.44z"/>
		<path class="st2" d="M228.59,36.94l0.13,0.09l-0.31,4.02l-0.07,0.03c1.43,0.6,2.93,1.06,4.5,1.33l-0.04-0.07l1.92-3.55l4.03-0.11
			l2.12,3.44l-0.04,0.07c1.55-0.36,3.03-0.89,4.42-1.58l-0.07-0.03l-0.54-4l3.19-2.47l3.74,1.53l0,0.07
			c1.03-1.18,1.92-2.48,2.65-3.87l-0.07,0.02l-2.79-2.91l1.13-3.88l3.92-0.95l0.05,0.05c0.06-0.79,0.09-1.58,0.06-2.38
			c-0.02-0.78-0.1-1.55-0.21-2.3l-0.04,0.06l-1.13-0.2C247.62,30.21,237.01,34.92,228.59,36.94z"/>
		<path class="st3" d="M245.05,32.42c1.89-1.66,3.2-3.74,3.9-5.98c-0.74,0.67-1.49,1.31-2.25,1.91c-0.64,1.14-1.48,2.19-2.52,3.1
			c-2.26,1.99-5.07,2.97-7.86,2.98c-0.91,0.38-1.81,0.73-2.7,1.04C237.56,36.26,241.81,35.27,245.05,32.42z"/>
	</g>
	<path class="st4" d="M228.11,7.38l-0.39-3.26c0,0,1.93-1.02,3.4-1.26C231.12,2.85,228.74,3.73,228.11,7.38z"/>
</g>
<g>
	<g>
		<path class="st0" d="M220.2,39.19c-0.04-1.48-0.18-2.94-0.4-4.38l-7.63-1.26l-2.58-7.21l5.08-5.82c-1.54-2.56-3.37-4.92-5.45-7.05
			l-6.91,3.47l-6.34-4.31l0.69-7.71c-2.63-1.11-5.41-1.94-8.29-2.44l-3.59,6.86l-7.67,0.18l-3.94-6.67
			c-2.95,0.67-5.76,1.67-8.41,2.97l1.13,7.66l-6.09,4.66l-7.1-3.06c-1.95,2.23-3.65,4.69-5.04,7.34l5.4,5.52l-2.18,7.35l-7.54,1.7
			c-0.14,1.52-0.19,3.07-0.15,4.65c0.05,1.44,0.18,2.85,0.38,4.25l7.63,1.29l2.56,7.22l-5.11,5.81c1.55,2.57,3.37,4.95,5.44,7.08
			l6.93-3.45l6.33,4.33l-0.72,7.71c2.71,1.15,5.57,2.01,8.55,2.52l3.57-6.88l7.66-0.21l3.95,6.66c2.94-0.68,5.76-1.7,8.4-3
			l-1.15-7.65l6.07-4.69l7.11,3.05c1.95-2.25,3.64-4.71,5.03-7.36l-5.43-5.5l2.15-7.37l7.55-1.71
			C220.2,42.22,220.25,40.71,220.2,39.19z M193.09,53.37c-7.15,6.28-18.06,5.61-24.37-1.58c-6.28-7.18-5.58-18.08,1.59-24.35
			c7.14-6.31,18.06-5.61,24.35,1.55C200.98,36.17,200.26,47.09,193.09,53.37z"/>
		<path class="st1" d="M200.68,23.73c-9.21-10.48-25.19-11.53-35.68-2.32c-10.47,9.22-11.51,25.17-2.28,35.67
			c9.2,10.48,25.18,11.51,35.65,2.31C208.86,50.19,209.89,34.21,200.68,23.73z M196.74,57.53c-9.45,8.3-23.86,7.37-32.16-2.08
			c-8.33-9.47-7.39-23.86,2.06-32.18c9.46-8.3,23.88-7.36,32.18,2.09C207.13,34.82,206.2,49.23,196.74,57.53z"/>
		<path class="st2" d="M167.09,67.97l0.25,0.17l-0.59,7.65l-0.13,0.07c2.71,1.15,5.57,2.01,8.55,2.52l-0.07-0.13l3.64-6.75
			l7.66-0.21l4.03,6.53l-0.08,0.13c2.94-0.68,5.76-1.7,8.4-3l-0.13-0.05l-1.03-7.6l6.07-4.69l7.1,2.92l0.01,0.13
			c1.95-2.25,3.64-4.71,5.03-7.36l-0.13,0.04l-5.3-5.54l2.15-7.37l7.45-1.81l0.1,0.09c0.12-1.49,0.17-3.01,0.12-4.53
			c-0.04-1.48-0.18-2.94-0.4-4.38l-0.08,0.11l-2.14-0.39C203.26,55.18,183.09,64.13,167.09,67.97z"/>
		<path class="st3" d="M198.38,59.39c3.6-3.16,6.08-7.11,7.42-11.37c-1.4,1.28-2.83,2.49-4.27,3.63c-1.22,2.16-2.82,4.15-4.79,5.88
			c-4.3,3.78-9.63,5.64-14.94,5.66c-1.73,0.72-3.44,1.38-5.14,1.97C184.14,66.68,192.21,64.81,198.38,59.39z"/>
	</g>
	<path class="st4" d="M166.17,11.8l-0.73-6.2c0,0,3.67-1.93,6.47-2.4C171.9,3.19,167.37,4.86,166.17,11.8z"/>
</g>
<path class="st5" d="M185.84,60.68c0.01,10.73-7.83,19.72-18.46,21.1c-2.32,0.3-4.67,0.28-6.96-0.27c-0.93-0.22-0.98,0.1-0.95,0.84
	c0.18,5.43-0.71,10.66-3.21,15.54c-3.36,6.55-8.4,11.54-14.48,15.55c-7.78,5.13-16.37,8.16-25.52,9.73
	c-5.49,0.94-11.03,1.36-16.59,1.11c-13.19-0.6-25.61-3.77-36.67-11.25c-6.95-4.7-12.45-10.66-15.42-18.68
	c-1.44-3.88-1.69-7.92-1.75-11.99c-0.01-0.91-0.16-1.03-1.06-0.86c-12.02,2.35-23.19-5.34-25.29-17.36
	c-2.01-11.5,6.3-22.83,17.89-24.38c11.27-1.51,21.19,5.31,23.82,16.42c0.22,0.93,0.4,1.03,1.19,0.52
	c8.22-5.39,17.19-8.9,26.89-10.49c2.22-0.36,4.47-0.8,6.71-0.79c13.76,0.09,27.31,1.32,39.78,7.93c2.17,1.15,4.31,2.36,6.37,3.7
	c1.39,0.9,1.36,0.89,1.74-0.65c2.17-8.85,7.67-14.41,16.57-16.44c11.56-2.64,23.49,5.7,25.19,17.46
	C185.75,58.52,185.81,59.6,185.84,60.68z"/>
<path class="st6" d="M81.11,62.43c5.44,0,9.71,4.28,9.72,9.73c0.01,5.44-4.28,9.76-9.69,9.76c-5.5,0.01-9.78-4.28-9.77-9.8
	C71.37,66.68,75.65,62.42,81.11,62.43z"/>
<path class="st6" d="M107.3,99.79c-4.41-0.04-8.75,0.38-12.94,1.89c-3.16,1.14-6.11,2.69-8.76,4.76c-1,0.78-2.08,0.84-3.17,0.27
	c-1.04-0.54-1.41-1.48-1.36-2.62c0.04-1.04,0.8-1.4,1.54-1.91c2.09-1.44,4.22-2.81,6.53-3.88c4.92-2.29,10.08-3.37,15.52-3.56
	c4.96-0.17,9.8,0.12,14.55,1.58c3.53,1.08,6.81,2.67,9.88,4.71c1.59,1.06,1.98,2.52,1.04,3.88c-0.87,1.28-2.47,1.5-3.94,0.5
	c-3.74-2.55-7.83-4.26-12.28-5.08C111.72,99.93,109.52,99.73,107.3,99.79z"/>
<path class="st6" d="M138.42,75.07c-0.03,1.23-0.52,1.98-1.45,2.39c-0.98,0.42-1.91,0.25-2.66-0.51c-0.68-0.68-1.25-1.48-1.96-2.13
	c-4.7-4.3-9.3-4.41-14.26-0.36c-0.84,0.69-1.64,1.42-2.36,2.24c-1.04,1.16-2.44,1.29-3.53,0.37c-1.03-0.88-1.19-2.33-0.2-3.45
	c3.45-3.89,7.55-6.7,12.92-6.93c4.41-0.19,7.99,1.84,11.05,4.86c0.68,0.68,1.3,1.43,1.92,2.16
	C138.26,74.16,138.46,74.68,138.42,75.07z"/>
<circle class="st7" cx="81.07" cy="72.18" r="16.49"/>
<circle class="st8" cx="81.07" cy="72.18" r="16.49"/>
<g>
	<g>
		<path class="st9" d="M73.24,55.88c0.61-0.9,1.23-1.78,1.87-2.65c0.81-1.12-0.92,1.14-0.39,0.5c0.2-0.24,0.38-0.48,0.58-0.71
			c0.35-0.42,0.72-0.84,1.1-1.24c0.38-0.4,0.76-0.79,1.17-1.16c0.27-0.25,1.73-1.44,0.63-0.58c-1.09,0.85,0.42-0.24,0.73-0.43
			c0.52-0.31,1.06-0.58,1.61-0.82c-0.6,0.25-1.19,0.5-1.79,0.76c1.05-0.43,2.12-0.73,3.24-0.9c-0.66,0.09-1.33,0.18-1.99,0.27
			c1.32-0.16,2.63-0.12,3.95,0.05c-0.66-0.09-1.33-0.18-1.99-0.27c4.19,0.63,8.07,2.52,12.26,3.18c3.38,0.54,6.25,0.55,9.63-0.07
			c2.38-0.44,4.68-1.23,7.07-1.59c-0.66,0.09-1.33,0.18-1.99,0.27c1.04-0.13,2.07-0.14,3.12-0.04c-0.66-0.09-1.33-0.18-1.99-0.27
			c0.79,0.11,1.54,0.28,2.29,0.56c-0.6-0.25-1.19-0.5-1.79-0.76c0.25,0.1,0.48,0.23,0.72,0.34c0.68,0.31,0.55,0.83-0.63-0.58
			c0.1,0.12,0.3,0.32,0.43,0.41c-0.99-0.65-1-1.48-0.51-0.53c1.47,2.81,5.44,4.43,8.47,3.45c1.24-0.4,2.35-1.05,3.31-1.93
			c1.26-1.16,2.36-3.57,2.2-5.3c-0.23-2.46-0.46-5.03-1.3-7.37c-1.25-3.47-3.2-6.25-6.28-8.33c-5.77-3.88-12.89-1.8-19.18-0.95
			c0.66-0.09,1.33-0.18,1.99-0.27c-4.93,0.63-9.82,0.65-14.78,0.78c-5.28,0.14-11.2,0.8-15.61,3.99c-5.14,3.72-8.49,9.24-7.32,15.75
			c0.9,5.01,5.81,9.08,10.99,7.47c2.85-0.88,5.16-3.29,7.37-5.23c0.84-0.74,1.67-1.49,2.52-2.22c0.45-0.39,0.9-0.77,1.35-1.15
			c0.2-0.17,0.41-0.33,0.61-0.5c0.94-0.76-0.09,0.02-0.43,0.32c1.71-1.54,3.99-2.72,6.1-3.61c-0.6,0.25-1.19,0.5-1.79,0.76
			c0.25-0.1,0.5-0.2,0.75-0.29c3.53-1.33,5.9-4.31,5.37-8.23c-0.52-3.85-3.6-6.22-7.37-6.5c-4.36-0.33-8.96,0.21-13.11,1.59
			c-2.98,0.99-5.97,2.35-7.59,5.21c-2.37,4.18-0.84,9.52,3.32,11.89c3.98,2.27,9.41,1.64,13.79,1.22c4.66-0.45,9.28-1.23,13.79-2.51
			c2.52-0.71,4.54-2.7,5.24-5.24c0.66-2.39,0.08-5.64-1.93-7.3c-3.07-2.54-6.53-4.49-10.46-5.34c-4.09-0.88-8.16-0.86-12.23,0.11
			c-2.88,0.68-4.99,3.41-5.37,6.24c-0.18,1.37-0.03,2.61,0.51,3.89c0.68,1.61,1.66,2.53,3.07,3.59c7.13,5.36,16.44,4.21,24.54,6.75
			c2.86,0.9,6.12-0.4,7.88-2.69c1.9-2.46,1.99-5.59,0.59-8.33c-1.96-3.83-5.28-7.04-9.01-9.14c-1.93,4.57-3.85,9.14-5.78,13.71
			c5.61,1.55,11.44,2.42,17.25,2.69c3.73,0.17,6.89-2.99,7.37-6.5c0.51-3.79-1.79-7.03-5.37-8.23c-3.24-1.08-6.48-2.17-9.72-3.25
			c-0.66,4.91-1.33,9.82-1.99,14.73c1.36-0.04,2.72,0.02,4.07,0.18c-0.66-0.09-1.33-0.18-1.99-0.27c2.23,0.3,4.37,0.86,6.45,1.72
			c-0.6-0.25-1.19-0.5-1.79-0.76c0.4,0.18,0.8,0.36,1.19,0.55c0.6-4.57,1.19-9.14,1.79-13.71c-1.02,0.25-2.04,0.44-3.09,0.58
			c0.66-0.09,1.33-0.18,1.99-0.27c-2.24,0.26-4.47,0.25-6.7-0.03c0.66,0.09,1.33,0.18,1.99,0.27c-1.76-0.25-3.46-0.66-5.13-1.26
			c-0.66,4.91-1.33,9.82-1.99,14.73c0.24-0.01,0.47,0,0.71,0.04c-0.66-0.09-1.33-0.18-1.99-0.27c1.53,0.27,2.85,1.12,4.37,1.42
			c3.82,0.74,7.28-0.26,10.2-2.79c1.18-1.03,2.04-2.36,3.2-3.4c0.48-0.43,1.49-0.87-0.32,0.2c0.33-0.2,0.64-0.45,0.97-0.65
			c0.79-0.49,1.62-0.9,2.47-1.28c-0.6,0.25-1.19,0.5-1.79,0.76c2.25-0.94,4.6-1.5,7.02-1.84c-0.66,0.09-1.33,0.18-1.99,0.27
			c3.22-0.4,6.45-0.42,9.69-0.42c3.17,0,6.51-2.32,7.23-5.51c0.71-3.11-0.42-6.94-3.45-8.47c-5.8-2.93-12.12-2.03-17.71,0.95
			c-3.88,2.07-6.91,5.4-10.98,7.16c-1.04,0.45-2.13,1.74-2.69,2.69c-0.85,1.46-1.11,3.13-0.89,4.78c0.4,2.95,2.48,5.39,5.37,6.24
			c7.87,2.32,15.49-0.69,23.27-1.76c-0.66,0.09-1.33,0.18-1.99,0.27c1-0.12,1.99-0.21,2.99-0.24c3.92-0.11,7.68-3.37,7.5-7.5
			c-0.18-4.07-3.3-7.5-7.5-7.5c-1.75,0-3.48-0.13-5.21-0.35c0.66,0.09,1.33,0.18,1.99,0.27c-3.59-0.51-7.1-1.4-10.6-2.32
			c-0.66,4.91-1.33,9.82-1.99,14.73c5.78,0.06,11.52-0.48,17.23-1.4c1.74-0.28,3.63-1.99,4.48-3.45c0.94-1.61,1.34-3.98,0.76-5.78
			c-0.59-1.81-1.71-3.57-3.45-4.48c-1.91-1.01-3.66-1.05-5.78-0.76c-0.16,0.02-0.31,0.04-0.47,0.07c0.66-0.09,1.33-0.18,1.99-0.27
			c-5.97,0.76-12,0.44-17.96,1.45c-5.32,0.9-10.92,3.25-14.52,7.4c-1.61,1.85-2.39,3.84-2.06,6.3c0.29,2.15,1.51,4.5,3.58,5.48
			c3.72,1.76,7.45,2.47,11.55,2.69c3.01,0.16,6.03,0.05,9.02,0.45c-0.66-0.09-1.33-0.18-1.99-0.27c1.39,0.21,2.73,0.53,4.03,1.04
			c-0.6-0.25-1.19-0.5-1.79-0.76c0.48,0.21,0.95,0.42,1.4,0.69c0.21,0.13,0.42,0.26,0.62,0.4c-1.02-0.82-1.24-0.98-0.67-0.48
			c0.18,0.16,0.35,0.33,0.51,0.51c0.5,0.58,0.33,0.35-0.51-0.69c0.17,0.41,0.48,0.79,0.67,1.2c-0.25-0.6-0.5-1.19-0.76-1.79
			c0.21,0.52,0.36,1.04,0.44,1.59c-0.09-0.66-0.18-1.33-0.27-1.99c0.04,0.44,0.03,0.86-0.02,1.3c0.09-0.66,0.18-1.33,0.27-1.99
			c-0.07,0.34-0.15,0.64-0.26,0.97c0.25-0.6,0.5-1.19,0.76-1.79c-0.05,0.11-0.09,0.21-0.14,0.32c3.42-0.9,6.84-1.79,10.26-2.69
			c-1.17-0.84,1.4,1.19,0.05,0.02c-0.36-0.31-0.71-0.64-1.05-0.98c-0.58-0.57-1.14-1.18-1.69-1.78c-1.18-1.29-2.35-2.6-3.7-3.72
			c-3.8-3.15-8.6-5.66-13.69-5.1c-2.05,0.23-3.79,0.69-5.3,2.2c-1.3,1.3-2.28,3.44-2.2,5.3c0.19,4.23,3.3,7.29,7.5,7.5
			c0.89,0.04,1.78,0.12,2.66,0.24c-0.66-0.09-1.33-0.18-1.99-0.27c2.33,0.34,4.58,0.96,6.76,1.86c-0.6-0.25-1.19-0.5-1.79-0.76
			c0.93,0.4,1.85,0.83,2.7,1.38c1.41,0.92-1.16-1.08-0.21-0.14c0.52,0.56,0.35,0.32-0.5-0.72c0.13,0.18,0.23,0.38,0.33,0.58
			c-0.25-0.6-0.5-1.19-0.76-1.79c0.13,0.32,0.2,0.59,0.26,0.93c-0.09-0.66-0.18-1.33-0.27-1.99c0.02,0.22,0.02,0.44-0.01,0.66
			c4.91-0.66,9.82-1.33,14.73-1.99c-0.79-3.31-1.7-6.61-2.37-9.95c0.09,0.66,0.18,1.33,0.27,1.99c0-0.12,0-0.25-0.01-0.37
			c-0.09,0.66-0.18,1.33-0.27,1.99c0.04-0.11,0.08-0.23,0.12-0.34c-0.64,1.1-1.29,2.21-1.93,3.31c-0.37,0.28-0.74,0.56-1.11,0.84
			c-0.6,0.25-1.19,0.5-1.79,0.76c0.09-0.02,0.18-0.05,0.26-0.07c-0.66,0.09-1.33,0.18-1.99,0.27c0.2-0.02,0.4-0.02,0.59,0.02
			c-0.66-0.09-1.33-0.18-1.99-0.27c0.21,0.04,0.42,0.1,0.62,0.18c-0.6-0.25-1.19-0.5-1.79-0.76c0.7,0.32,1.3,0.78,1.94,1.2
			c1.22,0.8-1.24-1.06-0.21-0.18c0.36,0.31,0.73,0.61,1.08,0.93c0.6,0.55,1.17,1.12,1.7,1.72c0.27,0.3,0.52,0.61,0.78,0.92
			c0.36,0.45,0.17,0.2-0.56-0.73c0.16,0.21,0.31,0.43,0.46,0.65c2.15,3.09,5.75,4.59,9.37,3.07c1.44-0.61,2.84-1.65,3.59-3.07
			c0.88-1.66,1.51-3.96,0.76-5.78c-0.91-2.2-1.81-4.39-2.72-6.59c-3.67,2.82-7.34,5.65-11.02,8.47c0.44,0.28,0.87,0.67,1.33,0.91
			c-0.98-0.77-1.17-0.92-0.57-0.44c0.2,0.17,0.41,0.34,0.6,0.52c0.69,0.61,1.33,1.26,1.93,1.96c0.17,0.2,0.34,0.4,0.5,0.6
			c-0.77-1.01-0.93-1.21-0.47-0.59c0.21,0.32,0.44,0.63,0.64,0.96c0.54,0.87,1,1.77,1.4,2.71c-0.25-0.6-0.5-1.19-0.76-1.79
			c0.19,0.47,0.36,0.94,0.52,1.42c3.08-3.08,6.15-6.15,9.23-9.23c-0.31-0.1-0.61-0.22-0.91-0.34c0.6,0.25,1.19,0.5,1.79,0.76
			c-0.43-0.2-0.85-0.41-1.25-0.66c-0.18-0.11-0.34-0.24-0.52-0.34c-0.72-0.44,1.39,1.2,0.78,0.61c-0.71-0.69-1.44-1.34-2.09-2.09
			c-1.18-1.35-2.25-2.8-3.46-4.13c-1.62-1.76-3.58-3.41-5.76-4.42c-3.32-1.53-6.57-1.96-10.18-2.4c-10.65-1.32-21.48-1.91-32.16-0.6
			c-3.55,0.44-7.08,0.96-10.56,1.77c-2.91,0.68-5.76,1.88-8.71,2.32c0.66-0.09,1.33-0.18,1.99-0.27c-0.75,0.07-1.46,0.05-2.21-0.05
			c0.66,0.09,1.33,0.18,1.99,0.27c-2.55-0.43-5.07-0.99-7.67-1.07c-2.62-0.08-5.29,0.28-7.84,0.84c-3.64,0.8-5.84,4.73-5.37,8.23
			c0.5,3.7,3.6,6.43,7.37,6.5c1.7,0.03,3.39,0.16,5.08,0.39c-0.66-0.09-1.33-0.18-1.99-0.27c3.32,0.48,6.55,1.34,9.67,2.6
			c0-4.82,0-9.64,0-14.46c-3.74,0.8-7.39,1.9-10.94,3.33c-1.8,0.72-3.53,1.64-4.48,3.45c-0.8,1.51-1.12,3.08-0.89,4.78
			c0.49,3.68,3.6,6.46,7.37,6.5c9.46,0.1,18.74-2.24,27.77-4.86c8.88-2.57,17.78-4.91,26.79-6.98c5.04-1.16,10.07-2.39,15.19-3.1
			c-0.66,0.09-1.33,0.18-1.99,0.27c3.72-0.48,7.45-0.64,11.17-0.15c-0.66-0.09-1.33-0.18-1.99-0.27c0.46,0.07,0.92,0.14,1.37,0.23
			c-0.6-4.57-1.19-9.14-1.79-13.71c-3.76,1.79-7.52,3.59-11.29,5.38c-1.55,0.74-3.07,2.84-3.45,4.48c-0.38,1.68-0.29,3.29,0.38,4.88
			c0.61,1.44,1.65,2.84,3.07,3.59c1.88,1,3.69,1.11,5.78,0.76c0.24-0.04,0.49-0.08,0.74-0.11c-0.66,0.09-1.33,0.18-1.99,0.27
			c1.23-0.14,2.45-0.14,3.69,0c-0.66-0.09-1.33-0.18-1.99-0.27c1.33,0.18,2.61,0.52,3.86,1.02c-0.6-0.25-1.19-0.5-1.79-0.76
			c0.6,0.26,1.19,0.54,1.76,0.87c0.25,0.15,0.5,0.3,0.75,0.46c0.71,0.48,0.72,0.95-0.41-0.34c0.36,0.41,0.83,0.8,1.23,1.19
			c0.91,0.89-1-1.54-0.34-0.46c0.17,0.29,0.36,0.56,0.53,0.85c2.82-3.67,5.65-7.34,8.47-11.02c-2.18-0.34-4.28-0.93-6.31-1.79
			c0.6,0.25,1.19,0.5,1.79,0.76c-1.18-0.52-2.31-1.12-3.4-1.81c-3.32-2.1-8.41-0.8-10.26,2.69c-1.96,3.7-0.85,8.02,2.69,10.26
			c3.46,2.19,7.45,3.72,11.5,4.35c1.34,0.21,2.65,0.37,3.99,0c1.58-0.43,2.91-1.41,3.9-2.69c1.84-2.38,2.1-5.69,0.59-8.33
			c-2-3.49-5.21-6.34-8.89-7.95c-4.59-2-9.13-2.5-14.07-1.66c1.93,4.57,3.85,9.14,5.78,13.71c3.76-1.79,7.52-3.59,11.29-5.38
			c2.67-1.27,3.95-4.75,3.58-7.47c-0.36-2.71-2.48-5.71-5.37-6.24c-5.85-1.05-11.39-0.82-17.24,0.02c-4.8,0.69-9.53,1.86-14.26,2.94
			c-9.55,2.19-18.97,4.73-28.39,7.43c-5.27,1.51-10.59,2.89-16.03,3.65c0.66-0.09,1.33-0.18,1.99-0.27
			c-2.78,0.37-5.58,0.57-8.39,0.54c0.66,4.91,1.33,9.82,1.99,14.73c3.55-1.42,7.2-2.53,10.94-3.33c3.08-0.65,5.65-4.1,5.51-7.23
			c-0.06-1.33-0.4-2.61-1.02-3.79c-0.96-1.82-2.68-2.72-4.48-3.45c-5.28-2.15-11.05-3.14-16.74-3.26c0.66,4.91,1.33,9.82,1.99,14.73
			c0.61-0.14,1.23-0.25,1.85-0.35c-0.66,0.09-1.33,0.18-1.99,0.27c2.03-0.27,4.06-0.3,6.09-0.06c-0.66-0.09-1.33-0.18-1.99-0.27
			c2.44,0.33,4.86,1.12,7.34,1c2.51-0.12,4.77-0.89,7.15-1.59c3.81-1.12,7.71-1.9,11.64-2.43c-0.66,0.09-1.33,0.18-1.99,0.27
			c11.43-1.5,23.01-0.83,34.41,0.66c-0.66-0.09-1.33-0.18-1.99-0.27c1.73,0.23,3.43,0.53,5.05,1.21c-0.6-0.25-1.19-0.5-1.79-0.76
			c0.69,0.32,1.28,0.74,1.93,1.13c-2-1.18-0.87-0.69-0.31-0.17c0.23,0.21,0.45,0.43,0.67,0.66c1.07,1.1,2.01,2.32,2.98,3.5
			c2.64,3.21,5.75,5.68,9.74,7.02c5.3,1.78,10.99-3.94,9.23-9.23c-2.14-6.41-6.34-11.59-12.03-15.22c-2.53-1.62-6.05-1.18-8.33,0.59
			c-1.06,0.82-1.79,1.77-2.31,3c-0.59,1.4-0.98,3.42-0.38,4.88c0.91,2.2,1.81,4.39,2.72,6.59c4.57-1.93,9.14-3.85,13.71-5.78
			c-1.59-2.28-3.35-4.47-5.49-6.27c-2.79-2.35-5.94-4.84-9.78-4.87c-2.97-0.02-5.93,1.54-7.44,4.13c-1.51,2.58-1.17,5.31-0.51,8.06
			c0.67,2.8,1.34,5.59,2.01,8.39c0.87,3.63,4.68,5.85,8.23,5.37c3.85-0.52,6.22-3.6,6.5-7.37c0.4-5.39-4.04-9.64-8.57-11.68
			c-4.38-1.97-8.8-3.06-13.61-3.29c0,5,0,10,0,15c0.81-0.09,1.59-0.08,2.4,0.02c-0.66-0.09-1.33-0.18-1.99-0.27
			c0.92,0.16,1.79,0.42,2.65,0.78c-0.6-0.25-1.19-0.5-1.79-0.76c0.54,0.25,1.07,0.52,1.58,0.83c0.28,0.17,0.55,0.37,0.83,0.54
			c0.94,0.61-0.61-0.44-0.58-0.46c0.22-0.15,2.49,2.4,2.73,2.67c2.1,2.27,4.15,4.32,6.69,6.14c3.02,2.17,8.75,0.79,10.26-2.69
			c0.88-2.03,1.58-3.95,1.46-6.21c-0.12-2.19-0.71-4.24-1.78-6.15c-1.96-3.49-5.25-5.75-8.89-7.16c-5.62-2.18-11.76-1.29-17.62-1.98
			c0.66,0.09,1.33,0.18,1.99,0.27c-1.53-0.21-3.01-0.54-4.45-1.1c0.6,0.25,1.19,0.5,1.79,0.76c-0.25-0.1-0.5-0.22-0.75-0.34
			c0.51,3.93,1.01,7.85,1.52,11.78c0.32-0.37,0.65-0.72,1-1.05c0.08-0.08,0.54-0.38,0.55-0.48c-0.02,0.2-1.63,1.18-0.48,0.4
			c0.89-0.6,1.83-1.09,2.81-1.52c-0.6,0.25-1.19,0.5-1.79,0.76c2.17-0.91,4.45-1.46,6.77-1.8c-0.66,0.09-1.33,0.18-1.99,0.27
			c5.8-0.77,11.66-0.55,17.46-1.37c-1.33-4.82-2.66-9.64-3.99-14.46c-0.79,0.13-1.58,0.24-2.37,0.35c0.66-0.09,1.33-0.18,1.99-0.27
			c-4.27,0.56-8.56,0.82-12.87,0.78c-3.74-0.04-6.88,2.89-7.37,6.5c-0.49,3.61,1.74,7.28,5.37,8.23c5.82,1.52,11.75,2.94,17.8,2.94
			c0-5,0-10,0-15c-5.62,0.16-10.95,1.91-16.48,2.68c0.66-0.09,1.33-0.18,1.99-0.27c-1.79,0.22-3.57,0.3-5.37,0.1
			c0.66,0.09,1.33,0.18,1.99,0.27c-0.82-0.12-1.62-0.28-2.41-0.52c0.6,4.57,1.19,9.14,1.79,13.71c4.61-1.99,7.97-5.97,12.59-7.92
			c-0.6,0.25-1.19,0.5-1.79,0.76c1.11-0.44,2.24-0.77,3.42-0.95c-0.66,0.09-1.33,0.18-1.99,0.27c0.89-0.11,1.76-0.13,2.65-0.02
			c-0.66-0.09-1.33-0.18-1.99-0.27c0.62,0.1,1.2,0.25,1.78,0.47c-0.6-0.25-1.19-0.5-1.79-0.76c0.23,0.09,0.45,0.2,0.67,0.32
			c1.26-4.66,2.52-9.32,3.79-13.98c-5.85-0.01-12.02,0.04-17.58,2.08c-3.18,1.16-5.88,2.62-8.49,4.77
			c-0.87,0.72-1.61,1.52-2.33,2.38c-0.3,0.36-0.62,0.7-0.94,1.05c-0.78,0.86,1.32-0.79,0.59-0.41c-0.26,0.13-0.49,0.27-0.76,0.39
			c0.6-0.25,1.19-0.5,1.79-0.76c-0.22,0.08-0.45,0.14-0.68,0.17c0.66-0.09,1.33-0.18,1.99-0.27c-0.37,0.03-0.68,0.03-1.05,0
			c0.66,0.09,1.33,0.18,1.99,0.27c-0.94-0.17-1.79-0.57-2.67-0.92c-1.39-0.55-2.9-0.8-4.4-0.81c-3.74-0.02-6.88,2.87-7.37,6.5
			c-0.52,3.84,1.81,6.96,5.37,8.23c6.03,2.14,12.73,2.21,18.91,0.7c2.88-0.7,4.99-3.39,5.37-6.24c0.37-2.76-0.91-6.18-3.58-7.47
			c-4.86-2.35-10.07-3.63-15.5-3.48c-3.75,0.1-6.86,2.77-7.37,6.5c-0.51,3.79,1.79,7.03,5.37,8.23c3.24,1.08,6.48,2.17,9.72,3.25
			c0.66-4.91,1.33-9.82,1.99-14.73c-2.04-0.09-4.08-0.27-6.1-0.54c0.66,0.09,1.33,0.18,1.99,0.27c-3.09-0.42-6.14-1.05-9.15-1.88
			c-3.62-1-7.41,0.95-8.85,4.34c-1.42,3.36-0.21,7.52,3.07,9.37c0.34,0.19,0.68,0.39,1.02,0.6c0.26,0.16,1.22,0.89,0.2,0.09
			c-1.03-0.81-0.08-0.06,0.14,0.14c0.29,0.25,0.57,0.52,0.84,0.79c0.22,0.23,0.44,0.46,0.64,0.7c0.95,1.1-0.41-0.38-0.36-0.48
			c-0.04,0.08,1.06,1.74,1.15,1.91c2.82-3.67,5.65-7.34,8.47-11.02c-6.31-1.98-13.18-1.53-19.34-4.04c0.6,0.25,1.19,0.5,1.79,0.76
			c-1.21-0.52-2.35-1.16-3.41-1.95c-0.6,4.57-1.19,9.14-1.79,13.71c0.65-0.15,1.29-0.27,1.95-0.37c-0.66,0.09-1.33,0.18-1.99,0.27
			c1.58-0.19,3.16-0.19,4.74,0c-0.66-0.09-1.33-0.18-1.99-0.27c1.68,0.23,3.3,0.67,4.87,1.32c-0.6-0.25-1.19-0.5-1.79-0.76
			c0.64,0.28,1.26,0.59,1.86,0.95c0.27,0.16,0.53,0.33,0.79,0.5c1.09,0.7-1.4-1.15-0.34-0.27c1.1-4.18,2.21-8.36,3.31-12.54
			c-3.03,0.86-6.1,1.5-9.22,1.94c0.66-0.09,1.33-0.18,1.99-0.27c-3.63,0.48-7.63,1-11.28,0.52c0.66,0.09,1.33,0.18,1.99,0.27
			c-0.41-0.08-0.79-0.18-1.18-0.34c0.6,0.25,1.19,0.5,1.79,0.76c-1.12-0.64-0.48,0.03,1.92,2.02c0.25,0.6,0.5,1.19,0.76,1.79
			c-0.03-0.08-0.06-0.15-0.09-0.23c0.09,0.66,0.18,1.33,0.27,1.99c-0.04-0.18-0.04-0.36,0-0.54c-0.09,0.66-0.18,1.33-0.27,1.99
			c0.03-0.09,0.07-0.18,0.1-0.27c-0.25,0.6-0.5,1.19-0.76,1.79c-0.44,0.76-1.04,1.37-1.78,1.83c0.2-0.12,0.4-0.22,0.62-0.32
			c-0.6,0.25-1.19,0.5-1.79,0.76c2.19-0.9,4.51-1.46,6.85-1.78c-0.66,0.09-1.33,0.18-1.99,0.27c1.95-0.23,3.89-0.28,5.85-0.13
			c-0.66-4.91-1.33-9.82-1.99-14.73c-4.37,1.65-7.94,3.98-11.55,6.93c-1.32,1.08-2.6,2.22-3.88,3.36c-0.64,0.57-1.28,1.13-1.93,1.69
			c-0.3,0.26-0.6,0.51-0.91,0.76c-0.2,0.17-0.41,0.33-0.61,0.5c1.06-0.74,1.26-0.93,0.62-0.56c0.6-0.25,1.19-0.5,1.79-0.76
			c-0.11,0.03-0.22,0.06-0.33,0.09c0.66-0.09,1.33-0.18,1.99-0.27c-0.11-0.01-0.22-0.03-0.32-0.04c1.26,0.34,2.52,0.68,3.79,1.02
			c-0.1-0.07-0.2-0.14-0.31-0.21c0.9,0.9,1.79,1.79,2.69,2.69c-0.2-0.29-0.35-0.56-0.49-0.88c0.25,0.6,0.5,1.19,0.76,1.79
			c-0.15-0.39-0.25-0.78-0.32-1.19c0.09,0.66,0.18,1.33,0.27,1.99c-0.06-0.52-0.05-1.01,0.01-1.52c-0.09,0.66-0.18,1.33-0.27,1.99
			c0.09-0.52,0.23-1.02,0.42-1.51c-0.25,0.6-0.5,1.19-0.76,1.79c0.24-0.57,0.55-1.07,0.87-1.6c0.45-0.74-1.24,1.43-0.43,0.56
			c0.24-0.26,0.48-0.52,0.74-0.76c0.23-0.22,1.12-0.92,0.06-0.11c-1.06,0.81-0.14,0.12,0.12-0.05c0.61-0.4,1.26-0.72,1.93-1.01
			c-0.6,0.25-1.19,0.5-1.79,0.76c1.65-0.64,3.34-1.02,5.08-1.26c-0.66,0.09-1.33,0.18-1.99,0.27c4.14-0.49,8.32-0.24,12.48-0.46
			c4.82-0.27,9.54-1.11,14.31-1.76c-0.66,0.09-1.33,0.18-1.99,0.27c1.39-0.17,2.77-0.26,4.17-0.12c-0.66-0.09-1.33-0.18-1.99-0.27
			c0.8,0.11,1.56,0.3,2.31,0.6c-0.6-0.25-1.19-0.5-1.79-0.76c0.43,0.2,0.82,0.5,1.24,0.7c-1.06-0.86-1.31-1.04-0.76-0.54
			c0.12,0.11,0.23,0.23,0.33,0.35c0.39,0.44,0.16,0.14-0.67-0.89c0.12,0.17,0.24,0.35,0.35,0.54c0.22,0.37,0.4,0.76,0.58,1.16
			c-0.25-0.6-0.5-1.19-0.76-1.79c0.54,1.35,0.83,2.76,1.03,4.19c-0.09-0.66-0.18-1.33-0.27-1.99c0.07,0.55,0.13,1.09,0.18,1.64
			c4.66-1.26,9.32-2.52,13.98-3.79c-2.37-4.52-7.51-6.46-12.34-6.67c-4.19-0.19-8.13,1.48-12.2,2.11c0.66-0.09,1.33-0.18,1.99-0.27
			c-1.4,0.18-2.76,0.18-4.16,0.01c0.66,0.09,1.33,0.18,1.99,0.27c-3.22-0.45-6.24-1.63-9.35-2.5c-4.13-1.16-8.37-1.58-12.58-0.6
			c-7.46,1.72-12.48,7.91-16.57,13.93c-2.21,3.25-0.72,8.46,2.69,10.26C66.77,60.58,70.88,59.35,73.24,55.88L73.24,55.88z"/>
	</g>
</g>
<circle class="st10" cx="48.07" cy="65.33" r="11.04"/>
<circle class="st10" cx="160.2" cy="66.68" r="11.04"/>
</svg>
