<?xml version="1.0" encoding="utf-8"?>
<!-- Generator: Adobe Illustrator 28.4.1, SVG Export Plug-In . SVG Version: 6.00 Build 0)  -->
<svg version="1.1" id="Layer_1" xmlns="http://www.w3.org/2000/svg" xmlns:xlink="http://www.w3.org/1999/xlink" x="0px" y="0px"
	 viewBox="0 0 268.34 136.3" style="enable-background:new 0 0 268.34 136.3;" xml:space="preserve">
<style type="text/css">
	.st0{opacity:0.45;fill:#FFFFFF;}
	.st1{fill:none;stroke:#000000;stroke-width:9;stroke-miterlimit:10;}
	.st2{fill:none;stroke:#000000;stroke-width:14;stroke-linecap:round;stroke-miterlimit:10;}
	.st3{fill:#27AAE1;}
	.st4{fill:#FFFFFF;}
	.st5{opacity:0.39;fill:#FFFFFF;}
	.st6{fill:none;stroke:#000000;stroke-width:3;stroke-miterlimit:10;}
	.st7{fill:#1C75BC;}
	.st8{fill:#2E3192;}
</style>
<g>
	<circle class="st0" cx="224.89" cy="47.78" r="33.57"/>
	<circle class="st1" cx="224.89" cy="47.78" r="33.57"/>
	<line class="st2" x1="192.74" y1="69.1" x2="145.78" y2="100.25"/>
</g>
<path class="st3" d="M185.84,60.68c0.01,10.73-7.83,19.72-18.46,21.1c-2.32,0.3-4.67,0.28-6.96-0.27c-0.93-0.22-0.98,0.1-0.95,0.84
	c0.18,5.43-0.71,10.66-3.21,15.54c-3.36,6.55-8.4,11.54-14.48,15.55c-7.78,5.13-16.37,8.16-25.52,9.73
	c-5.49,0.94-11.03,1.36-16.59,1.11c-13.19-0.6-25.61-3.77-36.67-11.25c-6.95-4.7-12.45-10.66-15.42-18.68
	c-1.44-3.88-1.69-7.92-1.75-11.99c-0.01-0.91-0.16-1.03-1.06-0.86c-12.02,2.35-23.19-5.34-25.29-17.36
	c-2.01-11.5,6.3-22.83,17.89-24.38c11.27-1.51,21.19,5.31,23.82,16.42c0.22,0.93,0.4,1.03,1.19,0.52
	c8.22-5.39,17.19-8.9,26.89-10.49c2.22-0.36,4.47-0.8,6.71-0.79c13.76,0.09,27.31,1.32,39.78,7.93c2.17,1.15,4.31,2.36,6.37,3.7
	c1.39,0.9,1.36,0.89,1.74-0.65c2.17-8.85,7.67-14.41,16.57-16.44c11.56-2.64,23.49,5.7,25.19,17.46
	C185.75,58.52,185.81,59.6,185.84,60.68z"/>
<path class="st4" d="M81.11,62.43c5.44,0,9.71,4.28,9.72,9.73c0.01,5.44-4.28,9.76-9.69,9.76c-5.5,0.01-9.78-4.28-9.77-9.8
	C71.37,66.68,75.65,62.42,81.11,62.43z"/>
<path class="st4" d="M107.3,99.79c-4.41-0.04-8.75,0.38-12.94,1.89c-3.16,1.14-6.11,2.69-8.76,4.76c-1,0.78-2.08,0.84-3.17,0.27
	c-1.04-0.54-1.41-1.48-1.36-2.62c0.04-1.04,0.8-1.4,1.54-1.91c2.09-1.44,4.22-2.81,6.53-3.88c4.92-2.29,10.08-3.37,15.52-3.56
	c4.96-0.17,9.8,0.12,14.55,1.58c3.53,1.08,6.81,2.67,9.88,4.71c1.59,1.06,1.98,2.52,1.04,3.88c-0.87,1.28-2.47,1.5-3.94,0.5
	c-3.74-2.55-7.83-4.26-12.28-5.08C111.72,99.93,109.52,99.73,107.3,99.79z"/>
<path class="st4" d="M138.42,75.07c-0.03,1.23-0.52,1.98-1.45,2.39c-0.98,0.42-1.91,0.25-2.66-0.51c-0.68-0.68-1.25-1.48-1.96-2.13
	c-4.7-4.3-9.3-4.41-14.26-0.36c-0.84,0.69-1.64,1.42-2.36,2.24c-1.04,1.16-2.44,1.29-3.53,0.37c-1.03-0.88-1.19-2.33-0.2-3.45
	c3.45-3.89,7.55-6.7,12.92-6.93c4.41-0.19,7.99,1.84,11.05,4.86c0.68,0.68,1.3,1.43,1.92,2.16
	C138.26,74.16,138.46,74.68,138.42,75.07z"/>
<circle class="st5" cx="81.07" cy="72.18" r="16.49"/>
<circle class="st6" cx="81.07" cy="72.18" r="16.49"/>
<g>
	<g>
		<path class="st7" d="M72.95,59.54c1.34-1.54,2.72-3.06,4.25-4.42c0.37-0.33,0.76-0.65,1.14-0.97c0.68-0.57-1.37,0.98-0.63,0.49
			c0.21-0.13,0.4-0.29,0.61-0.42c0.87-0.58,1.79-1.08,2.75-1.5c-0.6,0.25-1.19,0.5-1.79,0.76c1.04-0.42,2.11-0.72,3.22-0.9
			c-0.66,0.09-1.33,0.18-1.99,0.27c1.14-0.14,2.27-0.14,3.41-0.01c-0.66-0.09-1.33-0.18-1.99-0.27c2,0.28,3.88,0.94,5.73,1.72
			c-0.6-0.25-1.19-0.5-1.79-0.76c3.88,1.66,7.73,3.87,11.94,4.55c2.78,0.45,5.28,0.51,8.05,0.16c2.15-0.27,4.29-0.61,6.46-0.38
			c-0.66-0.09-1.33-0.18-1.99-0.27c1.03,0.14,2.02,0.39,2.98,0.79c-0.6-0.25-1.19-0.5-1.79-0.76c0.3,0.14,0.58,0.3,0.87,0.45
			c1.01,0.5-1.22-1.1-0.64-0.53c0.6,0.59,0.15,0.56-0.46-0.74c0.12,0.27,0.31,0.51,0.44,0.78c-0.25-0.6-0.5-1.19-0.76-1.79
			c0.04,0.09,0.07,0.19,0.11,0.28c1.34,3.53,4.31,5.9,8.23,5.37c3.72-0.5,6.4-3.6,6.5-7.37c0.08-3.01-0.05-6.21-1.15-9.04
			c-1.73-4.45-4.91-7.63-9.48-9.17c-3.26-1.11-6.83-0.93-10.22-0.79c-3.47,0.14-6.94,0.08-10.4-0.2c-3.32-0.27-6.62-0.82-9.96-0.93
			c-4.28-0.14-8.51,0.53-12.36,2.43c-3.02,1.49-5.96,4.22-7.45,7.27c-2.32,4.75-2.3,11.07,2.22,14.57
			c5.25,4.06,10.45-0.14,14.81-3.14c2.71-1.86,5.45-3.67,8.48-4.96c-0.6,0.25-1.19,0.5-1.79,0.76c1.14-0.46,2.29-0.84,3.48-1.14
			c3.07-0.75,5.65-4.03,5.51-7.23c-0.14-3.14-2.2-6.58-5.51-7.23c-5.09-1.01-10.05-1.06-15.14-0.03c-3.1,0.62-6.13,2.03-7.83,4.83
			c-2.35,3.89-1.13,8.68,2.34,11.36c2.46,1.9,5.17,2.2,8.17,2.57c2.08,0.25,4.17,0.4,6.26,0.45c4.71,0.11,9.37-0.34,14.02-1.07
			c2.5-0.39,4.61-2.94,5.24-5.24c0.73-2.63-0.07-5.34-1.93-7.3c-5.02-5.29-12.94-8.15-20.18-7.34c-3.07,0.34-5.59,1.61-6.85,4.61
			c-1.14,2.71-0.63,6.1,1.55,8.19c3.59,3.45,8.13,5.44,12.86,6.82c3.89,1.14,7.89,1.93,11.65,3.5c-0.6-0.25-1.19-0.5-1.79-0.76
			c0.22,0.1,0.45,0.19,0.67,0.3c2.83,1.28,5.74,1.41,8.33-0.59c2.21-1.71,3.72-5.09,2.69-7.88c-0.78-2.12-1.67-4.08-3.03-5.88
			c-1.76-2.34-3.55-4.02-5.92-5.76c-1.93,4.57-3.85,9.14-5.78,13.71c4.78,1.97,9.75,3.38,14.85,4.24c1.95,0.33,4.03,0.37,5.78-0.76
			c1.39-0.9,2.42-2.05,3.07-3.59c1.34-3.18,0.31-7.76-3.07-9.37c-3.08-1.47-6.17-2.93-9.25-4.4c-1.26,4.66-2.52,9.32-3.79,13.98
			c0.44,0.04,0.87,0.09,1.31,0.14c-0.66-0.09-1.33-0.18-1.99-0.27c2.16,0.32,4.25,0.88,6.27,1.71c-0.6-0.25-1.19-0.5-1.79-0.76
			c1.31,0.56,2.56,1.22,3.75,1.99c1.26-4.66,2.52-9.32,3.79-13.98c-2.18,0.26-4.35,0.26-6.53,0c0.66,0.09,1.33,0.18,1.99,0.27
			c-2.3-0.31-4.52-0.89-6.66-1.77c0.6,0.25,1.19,0.5,1.79,0.76c-0.52-0.23-1.04-0.46-1.54-0.72c-1.26,4.66-2.52,9.32-3.79,13.98
			c0.11,0.01,0.22,0.03,0.34,0.04c-0.66-0.09-1.33-0.18-1.99-0.27c0.34,0.07,0.64,0.16,0.96,0.28c-0.6-0.25-1.19-0.5-1.79-0.76
			c1.69,0.73,3.16,1.79,4.95,2.35c2.88,0.9,5.91,0.56,8.58-0.8c1.61-0.82,2.94-2.1,4.26-3.31c0.47-0.43,1.37-0.89-0.35,0.19
			c0.34-0.21,0.65-0.46,0.99-0.67c0.69-0.43,1.41-0.78,2.15-1.1c-0.6,0.25-1.19,0.5-1.79,0.76c1.81-0.74,3.68-1.21,5.62-1.48
			c-0.66,0.09-1.33,0.18-1.99,0.27c4.45-0.55,8.91-0.03,13.34,0.51c0.66-0.09,1.33-0.18,1.99-0.27c0.98-0.23,1.83-0.68,2.55-1.34
			c1.24-0.96,2.33-2.33,2.69-3.9c0.77-3.39-0.57-6.55-3.45-8.47c-4.39-2.94-10.42-2.94-15.28-1.28c-4.38,1.49-8.02,4.29-12.23,6.09
			c0.6-0.25,1.19-0.5,1.79-0.76c-0.66,0.27-1.32,0.5-2,0.7c-2.88,0.85-4.97,3.27-5.37,6.24c-0.18,1.37-0.03,2.61,0.51,3.89
			c0.57,1.35,1.66,2.98,3.07,3.59c2.91,1.25,5.39,1.94,8.54,2.25c1.9,0.19,3.8,0.14,5.7,0c3.96-0.29,7.92-0.89,11.9-0.52
			c1.81,0.17,4.06-0.96,5.3-2.2c1.3-1.3,2.28-3.44,2.2-5.3c-0.09-1.94-0.72-3.95-2.2-5.3c-1.56-1.43-3.21-1.94-5.3-2.2
			c-0.15-0.02-0.31-0.04-0.46-0.06c0.66,0.09,1.33,0.18,1.99,0.27c-5.19-0.71-10.07-2.58-14.91-4.5c-0.66,4.91-1.33,9.82-1.99,14.73
			c5.06,0.67,10.16,0.91,15.26,0.71c3.92-0.15,7.69-3.34,7.5-7.5c-0.18-4-3.3-7.58-7.5-7.5c-5.58,0.1-11.13-1.03-16.71-0.73
			c-6.21,0.34-12.14,2.02-16.84,6.26c-3.71,3.35-2.37,9.33,1.52,11.78c3.26,2.05,7.03,3.02,10.8,3.58c3.31,0.5,6.66,0.84,9.8,2.1
			c-0.6-0.25-1.19-0.5-1.79-0.76c0.57,0.25,1.13,0.51,1.67,0.82c0.23,0.13,0.45,0.3,0.68,0.43c0.64,0.35-1.41-1.3-0.51-0.37
			c0.17,0.17,0.34,0.35,0.52,0.52c0.76,0.74-0.46-0.66-0.49-0.68c0.33,0.13,0.71,1.21,0.86,1.53c-0.25-0.6-0.5-1.19-0.76-1.79
			c0.21,0.53,0.35,1.06,0.44,1.62c-0.09-0.66-0.18-1.33-0.27-1.99c0.04,0.44,0.04,0.86,0,1.31c0.09-0.66,0.18-1.33,0.27-1.99
			c-0.08,0.44-0.19,0.85-0.36,1.26c0.25-0.6,0.5-1.19,0.76-1.79c-0.09,0.21-0.2,0.41-0.32,0.6c3.93-0.51,7.85-1.01,11.78-1.52
			c-0.72-0.66-1.35-1.37-1.98-2.1c-0.95-1.1,0.96,1.33,0.17,0.22c-0.32-0.44-0.64-0.88-0.96-1.33c-1.3-1.81-2.59-3.68-4.13-5.29
			c-3.48-3.66-8.21-6.07-13.31-6.12c-3.74-0.04-6.88,2.88-7.37,6.5c-0.45,3.38,1.69,7.6,5.37,8.23c2.12,0.36,4.16,0.95,6.15,1.76
			c-0.6-0.25-1.19-0.5-1.79-0.76c1.35,0.58,2.66,1.24,3.9,2.03c0.12,0.08,0.84,0.46,0.84,0.56c-0.01-0.13-1.5-1.28-0.44-0.3
			c0.17,0.16,0.62,0.46,0.68,0.7c-0.24-0.31-0.48-0.61-0.72-0.92c0.13,0.2,0.25,0.41,0.35,0.63c-0.25-0.6-0.5-1.19-0.76-1.79
			c0.13,0.34,0.22,0.63,0.28,0.99c-0.09-0.66-0.18-1.33-0.27-1.99c0.03,0.23,0.03,0.46,0,0.68c0.09-0.66,0.18-1.33,0.27-1.99
			c-0.02,0.12-0.04,0.23-0.07,0.35c4.91,0.66,9.82,1.33,14.73,1.99c-0.21-1.79-0.41-3.59-0.62-5.38c-0.19-1.64-0.67-3.5-0.5-5.14
			c-0.34,1.26-0.68,2.52-1.02,3.79c-0.69,0.69-1.39,1.39-2.08,2.08c-1.26,0.34-2.52,0.68-3.79,1.02c0.19-0.04,0.37-0.05,0.56-0.01
			c-0.66-0.09-1.33-0.18-1.99-0.27c0.21,0.04,0.41,0.1,0.6,0.18c-0.6-0.25-1.19-0.5-1.79-0.76c0.2,0.09,0.38,0.19,0.56,0.31
			c-0.31-0.24-0.62-0.48-0.94-0.72c0.35,0.18,0.68,0.58,0.98,0.85c0.68,0.63,1.33,1.29,1.94,1.99c0.18,0.21,1.16,1.43,0.35,0.38
			c-0.81-1.05,0.12,0.2,0.28,0.43c0.51,0.75,0.96,1.52,1.38,2.32c1.75,3.3,6.08,4.46,9.37,3.07c3.4-1.43,5.35-5.21,4.34-8.85
			c-0.63-2.29-1.27-4.58-1.9-6.87c-4.18,2.43-8.36,4.86-12.54,7.3c0.62,0.51,1.22,1.05,1.79,1.62c0.28,0.28,0.55,0.57,0.81,0.87
			c0.17,0.2,0.35,0.4,0.51,0.6c-0.72-0.95-0.91-1.2-0.57-0.74c0.94,1.33,1.75,2.69,2.4,4.19c-0.25-0.6-0.5-1.19-0.76-1.79
			c0.48,1.18,0.85,2.38,1.1,3.63c3.67-2.82,7.35-5.65,11.02-8.47c-0.4-0.19-0.79-0.39-1.16-0.63c-0.18-0.11-0.35-0.26-0.53-0.36
			c1.75,1.03,1.15,0.94,0.66,0.47c-0.3-0.3-0.6-0.58-0.88-0.9c-0.14-0.16-0.27-0.32-0.41-0.48c-0.58-0.64,1.15,1.58,0.49,0.64
			c-1.04-1.5-1.97-3.07-2.99-4.59c-1.69-2.5-3.46-4.49-5.86-6.29c-2.25-1.69-5.04-2.61-7.74-3.31c-10.92-2.83-22.24-4.87-33.55-5.06
			c-6.66-0.11-13.09,0.84-19.66,1.85c0.66-0.09,1.33-0.18,1.99-0.27c-0.82,0.1-1.61,0.14-2.43,0.08c0.66,0.09,1.33,0.18,1.99,0.27
			c-2.21-0.33-4.25-1.31-6.46-1.69c-2.75-0.47-5.47-0.73-8.25-0.47c-1.94,0.19-3.92,0.69-5.3,2.2c-1.14,1.24-1.84,2.63-2.06,4.31
			c-0.21,1.6-0.01,3.39,0.89,4.78c0.98,1.52,2.6,3.18,4.48,3.45c3.56,0.5,7.01,1.44,10.33,2.81c-0.6-0.25-1.19-0.5-1.79-0.76
			c1.35,0.58,2.66,1.22,3.95,1.93c1.26-4.66,2.52-9.32,3.79-13.98c-4.47,0.4-8.92,1.1-13.26,2.25c-3.62,0.96-5.86,4.6-5.37,8.23
			c0.21,1.57,0.86,3.2,2.06,4.31c1.57,1.44,3.21,1.92,5.3,2.2c13.69,1.8,27.44-1.88,40.94-3.71c-0.66,0.09-1.33,0.18-1.99,0.27
			c6.38-0.86,12.79-1.53,19.2-2.19c5.98-0.62,12.02-1.16,18.01-0.37c-0.66-0.09-1.33-0.18-1.99-0.27c1.81,0.26,3.58,0.65,5.33,1.18
			c0-4.82,0-9.64,0-14.46c-3.95,1.33-7.9,2.66-11.85,3.99c-3.56,1.2-5.88,4.42-5.37,8.23c0.47,3.52,3.62,6.68,7.37,6.5
			c0.89-0.04,1.76-0.01,2.65,0.09c-0.66-0.09-1.33-0.18-1.99-0.27c1.37,0.19,2.69,0.55,3.97,1.07c-0.6-0.25-1.19-0.5-1.79-0.76
			c0.73,0.32,1.44,0.68,2.12,1.11c0.62,0.39,1.35,1.31-0.19-0.23c0.25,0.25,0.55,0.46,0.81,0.7c0.26,0.24,0.5,0.5,0.74,0.76
			c1.04,1.16-0.06-0.38-0.3-0.43c0.39,0.07,1.02,1.8,1.15,2.1c2.82-3.67,5.65-7.34,8.47-11.02c-1.09-0.31-2.15-0.67-3.2-1.11
			c0.6,0.25,1.19,0.5,1.79,0.76c-1.02-0.44-2.02-0.93-2.98-1.5c-0.47-0.28-0.94-0.58-1.39-0.89c-0.23-0.16-0.45-0.31-0.67-0.48
			c0.97,0.76,1.16,0.9,0.56,0.42c-1.59-1.3-3.18-2.2-5.3-2.2c-1.84,0-4.04,0.82-5.3,2.2c-2.52,2.75-3.24,7.96,0,10.61
			c3.76,3.07,7.82,5.34,12.52,6.67c2.91,0.82,6.07-0.34,7.88-2.69c0.83-1.08,1.3-2.2,1.48-3.55c0.24-1.81-0.18-3.1-0.89-4.78
			c-3.18-7.5-12.27-11.95-20.12-11.58c0.66,4.91,1.33,9.82,1.99,14.73c3.95-1.33,7.9-2.66,11.85-3.99c3.03-1.02,5.66-3.83,5.51-7.23
			c-0.15-3.38-2.24-6.22-5.51-7.23c-8.23-2.54-16.9-1.95-25.33-1.09c-8.96,0.92-17.91,1.88-26.81,3.27
			c-4.71,0.74-9.4,1.58-14.13,2.22c0.66-0.09,1.33-0.18,1.99-0.27c-6.37,0.84-12.8,1.25-19.2,0.41c0.66,4.91,1.33,9.82,1.99,14.73
			c2.77-0.74,5.57-1.3,8.41-1.68c-0.66,0.09-1.33,0.18-1.99,0.27c0.95-0.12,1.9-0.22,2.85-0.31c3.2-0.29,6.46-2.12,7.23-5.51
			c0.73-3.2-0.46-6.81-3.45-8.47c-4.97-2.76-10.43-4.7-16.07-5.5c-0.66,4.91-1.33,9.82-1.99,14.73c1.8-0.17,3.58-0.15,5.37,0.06
			c-0.66-0.09-1.33-0.18-1.99-0.27c3.19,0.45,6.11,1.84,9.34,2.09c3.34,0.26,6.78-0.83,10.08-1.27c-0.66,0.09-1.33,0.18-1.99,0.27
			c8.16-1.05,16.39-0.76,24.53,0.32c-0.66-0.09-1.33-0.18-1.99-0.27c3.85,0.52,7.67,1.21,11.47,2.03c3.63,0.78,7.44,1.47,10.9,2.83
			c-0.6-0.25-1.19-0.5-1.79-0.76c0.53,0.23,1.04,0.47,1.53,0.76c0.19,0.11,0.37,0.23,0.56,0.36c0.61,0.44,0.36,0.25-0.74-0.58
			c0.5,0.55,1.07,1.04,1.57,1.59c0.82,0.91-1.25-1.72-0.2-0.25c0.19,0.26,0.37,0.53,0.55,0.8c0.45,0.67,0.87,1.36,1.3,2.05
			c2.23,3.53,4.84,7.07,8.71,8.92c2.79,1.33,5.79,1.38,8.33-0.59c2.48-1.91,3.3-4.86,2.69-7.88c-1.18-5.77-4.63-11.27-9.15-15
			c-1.32-1.08-2.58-1.83-4.31-2.06c-1.6-0.21-3.39-0.01-4.78,0.89c-2.8,1.8-4.36,5.17-3.45,8.47c0.63,2.29,1.27,4.58,1.9,6.87
			c4.57-1.93,9.14-3.85,13.71-5.78c-1.31-2.47-3.02-4.76-4.93-6.79c-2.44-2.61-5.6-5.37-9.39-5.35c-3.04,0.02-5.86,1.39-7.48,4.01
			c-1.23,1.98-1.28,4.12-1.03,6.32c0.32,2.77,0.64,5.55,0.96,8.32c0.23,1.96,0.66,3.89,2.2,5.3c1.24,1.14,2.63,1.84,4.31,2.06
			c3.44,0.46,7.52-1.7,8.23-5.37c0.68-3.51,0.07-6.66-2.12-9.5c-1.5-1.94-3.37-3.44-5.47-4.7c-3.44-2.06-7.36-3.54-11.31-4.22
			c-0.66,4.91-1.33,9.82-1.99,14.73c0.4,0,0.78,0.03,1.17,0.07c-0.66-0.09-1.33-0.18-1.99-0.27c0.9,0.14,1.73,0.38,2.56,0.73
			c-0.6-0.25-1.19-0.5-1.79-0.76c0.58,0.27,1.14,0.57,1.67,0.92c0.25,0.17,1.21,0.89,0.17,0.09c-1.04-0.79-0.11-0.06,0.11,0.15
			c0.46,0.42,0.89,0.87,1.31,1.34c0.22,0.25,0.42,0.51,0.63,0.76c0.56,0.67-1.16-1.57-0.3-0.38c1.87,2.62,3.69,5.38,6.07,7.56
			c3.54,3.24,9.26,2.79,11.78-1.52c4.44-7.58-0.35-16.74-7.85-20c-3.16-1.37-6.28-2.1-9.67-2.58c-2.96-0.42-5.94-0.83-8.73-1.95
			c0.6,0.25,1.19,0.5,1.79,0.76c-0.76-0.33-1.49-0.7-2.19-1.15c0.51,3.93,1.01,7.85,1.52,11.78c0.14-0.13,0.28-0.25,0.42-0.37
			c0.44-0.37,0.18-0.17-0.78,0.6c0.27-0.13,0.53-0.36,0.78-0.52c0.6-0.37,1.22-0.67,1.86-0.96c-0.6,0.25-1.19,0.5-1.79,0.76
			c1.71-0.71,3.49-1.15,5.33-1.42c-0.66,0.09-1.33,0.18-1.99,0.27c6.38-0.83,12.74,0.62,19.12,0.5c0-5,0-10,0-15
			c-5.1,0.19-10.2-0.04-15.26-0.71c-1.69-0.22-4.19,0.99-5.3,2.2c-1.14,1.24-1.84,2.63-2.06,4.31c-0.21,1.6-0.01,3.39,0.89,4.78
			c1.12,1.74,2.57,2.69,4.48,3.45c2.56,1.01,5.12,2.02,7.74,2.85c3.16,1,6.34,1.57,9.62,1.97c0-5,0-10,0-15
			c-6.02-0.56-11.99,1.17-18,0.48c0.66,0.09,1.33,0.18,1.99,0.27c-1.37-0.19-2.68-0.51-3.97-1.02c0.6,0.25,1.19,0.5,1.79,0.76
			c-0.13-0.05-0.25-0.11-0.38-0.16c-0.6,4.57-1.19,9.14-1.79,13.71c4.73-1.4,8.54-4.36,12.99-6.32c-0.6,0.25-1.19,0.5-1.79,0.76
			c1.43-0.59,2.89-1.01,4.43-1.22c-0.66,0.09-1.33,0.18-1.99,0.27c1-0.11,1.99-0.12,2.99,0c-0.66-0.09-1.33-0.18-1.99-0.27
			c0.72,0.12,1.4,0.3,2.08,0.57c-0.6-0.25-1.19-0.5-1.79-0.76c0.44,0.2,0.85,0.43,1.25,0.7c1.26-4.66,2.52-9.32,3.79-13.98
			c-5.78-0.71-11.44-1.14-17.19,0.08c-2.67,0.56-5.38,1.59-7.7,3.02c-1.31,0.81-2.55,1.78-3.68,2.82c-0.39,0.35-0.79,0.7-1.17,1.07
			c-0.56,0.56,1.38-0.89,0.69-0.53c-0.25,0.13-0.49,0.29-0.75,0.42c0.6-0.25,1.19-0.5,1.79-0.76c-0.33,0.13-0.63,0.22-0.99,0.28
			c0.66-0.09,1.33-0.18,1.99-0.27c-0.36,0.03-0.67,0.02-1.02-0.02c0.66,0.09,1.33,0.18,1.99,0.27c-0.33-0.07-0.63-0.16-0.94-0.28
			c0.6,0.25,1.19,0.5,1.79,0.76c-0.83-0.36-1.58-0.86-2.39-1.26c-2.03-1.01-3.47-1.35-5.7-1.63c-0.66,0.09-1.33,0.18-1.99,0.27
			c-0.98,0.23-1.83,0.68-2.55,1.34c-1.24,0.96-2.33,2.33-2.69,3.9c-0.71,3.1,0.41,6.96,3.45,8.47c5.7,2.84,12.15,4.28,18.52,3.51
			c1.72-0.21,3.13-0.52,4.54-1.61c1.24-0.96,2.33-2.33,2.69-3.9c0.76-3.35-0.55-6.6-3.45-8.47c-4.57-2.94-9.75-4.37-15.12-4.87
			c-1.6-0.15-3.33,0.68-4.54,1.61c-1.24,0.96-2.33,2.33-2.69,3.9c-0.7,3.05,0.39,7.02,3.45,8.47c3.08,1.47,6.17,2.93,9.25,4.4
			c1.93-4.57,3.85-9.14,5.78-13.71c-5.1-0.86-10.07-2.27-14.85-4.24c-1.6-0.66-4.37-0.15-5.78,0.76c-1.39,0.9-2.42,2.05-3.07,3.59
			c-0.63,1.49-0.89,3.3-0.38,4.88c0.64,1.97,1.79,3.27,3.45,4.48c-0.42-0.31-1.29-1.06-0.39-0.28c0.21,0.18,0.41,0.36,0.6,0.55
			c0.24,0.23,0.48,0.47,0.71,0.72c0.2,0.22,0.97,1.19,0.19,0.16c-0.74-0.98-0.14-0.18,0.01,0.04c0.19,0.27,0.36,0.55,0.53,0.83
			c0.33,0.56,0.62,1.14,0.88,1.74c-0.25-0.6-0.5-1.19-0.76-1.79c0.1,0.24,0.19,0.48,0.28,0.72c3.67-2.82,7.34-5.65,11.02-8.47
			c-3.17-1.43-6.39-2.49-9.75-3.38c-2.81-0.74-5.63-1.45-8.33-2.54c0.6,0.25,1.19,0.5,1.79,0.76c-0.97-0.41-1.93-0.87-2.83-1.42
			c-0.33-0.2-0.79-0.67-1.15-0.77c0.27,0.07,1.53,1.25,0.57,0.42c-0.22-0.19-0.43-0.39-0.64-0.59c-1.77,4.27-3.54,8.54-5.3,12.8
			c1.59-0.18,3.16-0.16,4.75,0.05c-0.66-0.09-1.33-0.18-1.99-0.27c1.57,0.24,3.07,0.65,4.54,1.25c-0.6-0.25-1.19-0.5-1.79-0.76
			c1,0.43,1.97,0.93,2.88,1.54c1.3,0.87-1.19-1.05-0.01-0.04c0.42,0.36,0.82,0.75,1.21,1.16c1.1-4.18,2.21-8.36,3.31-12.54
			c-0.48,0.07-0.95,0.14-1.43,0.21c0.66-0.09,1.33-0.18,1.99-0.27c-5.92,0.79-11.9,0.79-17.82,0.02c0.66,0.09,1.33,0.18,1.99,0.27
			c-0.74-0.1-1.42-0.24-2.12-0.52c0.6,0.25,1.19,0.5,1.79,0.76c-0.47-0.26-0.4-0.18,0.23,0.26c0.57,0.39,1.03,0.88,1.38,1.49
			c0.25,0.6,0.5,1.19,0.76,1.79c-0.02-0.08-0.05-0.17-0.07-0.25c0.09,0.66,0.18,1.33,0.27,1.99c0-0.09,0-0.18-0.01-0.27
			c-0.09,0.66-0.18,1.33-0.27,1.99c0.02-0.09,0.04-0.19,0.07-0.28c-0.25,0.6-0.5,1.19-0.76,1.79c-0.35,0.58-0.8,1.06-1.35,1.44
			c-0.61,0.43-0.68,0.52-0.2,0.25c-0.6,0.25-1.19,0.5-1.79,0.76c1.32-0.53,2.78-0.75,4.18-0.94c-0.66,0.09-1.33,0.18-1.99,0.27
			c2.49-0.3,4.98-0.3,7.47,0.02c-0.66-0.09-1.33-0.18-1.99-0.27c0.62,0.09,1.23,0.19,1.84,0.32c0-4.82,0-9.64,0-14.46
			c-3.81,0.94-7.44,2.73-10.74,4.83c-2.86,1.83-5.54,4-8.51,5.65c0.6-0.25,1.19-0.5,1.79-0.76c-0.21,0.11-0.43,0.17-0.66,0.17
			c1.33,0,2.66,0,3.99,0c-0.11-0.03-0.21-0.05-0.32-0.08c1.1,0.64,2.21,1.29,3.31,1.93c0.24,0.32,0.48,0.63,0.72,0.95
			c0.25,0.6,0.5,1.19,0.76,1.79c-0.16-0.41-0.27-0.81-0.34-1.25c0.09,0.66,0.18,1.33,0.27,1.99c-0.04-0.42-0.05-0.83-0.01-1.25
			c-0.09,0.66-0.18,1.33-0.27,1.99c0.08-0.53,0.21-1.02,0.39-1.53c-0.25,0.6-0.5,1.19-0.76,1.79c0.08-0.19,0.6-1.47,0.79-1.45
			c-0.05,0-1.37,1.62-0.42,0.58c0.2-0.22,0.41-0.43,0.62-0.63c0.18-0.16,0.37-0.31,0.55-0.47c-1.48,1.39-0.99,0.76-0.47,0.43
			c0.58-0.37,1.18-0.67,1.81-0.95c-0.6,0.25-1.19,0.5-1.79,0.76c1.19-0.47,2.42-0.75,3.69-0.93c-0.66,0.09-1.33,0.18-1.99,0.27
			c5.2-0.62,10.42,0.54,15.6,0.87c2.58,0.16,5.16,0.21,7.74,0.14c2.38-0.06,4.77-0.28,7.15-0.03c-0.66-0.09-1.33-0.18-1.99-0.27
			c0.91,0.12,1.78,0.32,2.64,0.64c-0.6-0.25-1.19-0.5-1.79-0.76c0.24,0.1,1.28,0.44,1.35,0.7c-0.11-0.37-1.57-1.2-0.44-0.28
			c0.36,0.41,0.31,0.32-0.15-0.25c-0.44-0.59-0.5-0.67-0.19-0.22c0.21,0.39,0.43,0.76,0.62,1.17c-0.25-0.6-0.5-1.19-0.76-1.79
			c0.38,0.95,0.61,1.92,0.75,2.93c-0.09-0.66-0.18-1.33-0.27-1.99c0.16,1.37,0.17,2.74,0.13,4.11c4.91-0.66,9.82-1.33,14.73-1.99
			c-1.13-2.98-2.82-5.29-5.58-6.96c-2.06-1.25-4.3-1.81-6.64-2.13c-4.36-0.59-8.6,0.91-12.95,0.44c0.66,0.09,1.33,0.18,1.99,0.27
			c-2.02-0.28-3.93-0.92-5.81-1.7c0.6,0.25,1.19,0.5,1.79,0.76c-3.05-1.29-6.01-2.83-9.16-3.87c-3.66-1.21-7.44-1.38-11.22-0.67
			c-6.39,1.2-11.49,6.01-15.61,10.73c-1.32,1.51-2.2,3.24-2.2,5.3c0,1.84,0.82,4.04,2.2,5.3C65.17,62.14,70.2,62.7,72.95,59.54
			L72.95,59.54z"/>
	</g>
</g>
<circle class="st8" cx="48.07" cy="65.33" r="11.04"/>
<circle class="st8" cx="160.2" cy="66.68" r="11.04"/>
</svg>
